<svg height="670" width="720" xmlns="http://www.w3.org/2000/svg">
<rect height="670" fill="#555" width="720"></rect>
<text fill="#7f7" font-family="Courier New" font-size="12" xml:space="preserve">
<tspan x="10" y="26">10 megabytes installed</tspan>
<tspan x="10" y="42"></tspan>
<tspan x="10" y="58">node_modules</tspan>
<tspan x="10" y="74">└─┬ elasticsearch-odm@1.1.0 </tspan>
<tspan x="10" y="90">  ├── bluebird@2.9.34 </tspan>
<tspan x="10" y="106">  ├─┬ dot-object@1.5.4 </tspan>
<tspan x="10" y="122">  │ ├─┬ commander@2.9.0 </tspan>
<tspan x="10" y="138">  │ │ └── graceful-readlink@1.0.1 </tspan>
<tspan x="10" y="154">  │ └─┬ glob@7.1.1 </tspan>
<tspan x="10" y="170">  │   ├── fs.realpath@1.0.0 </tspan>
<tspan x="10" y="186">  │   ├─┬ inflight@1.0.6 </tspan>
<tspan x="10" y="202">  │   │ └── wrappy@1.0.2 </tspan>
<tspan x="10" y="218">  │   ├── inherits@2.0.3 </tspan>
<tspan x="10" y="234">  │   ├─┬ minimatch@3.0.3 </tspan>
<tspan x="10" y="250">  │   │ └─┬ brace-expansion@1.1.7 </tspan>
<tspan x="10" y="266">  │   │   ├── balanced-match@0.4.2 </tspan>
<tspan x="10" y="282">  │   │   └── concat-map@0.0.1 </tspan>
<tspan x="10" y="298">  │   ├── once@1.4.0 </tspan>
<tspan x="10" y="314">  │   └── path-is-absolute@1.0.1 </tspan>
<tspan x="10" y="330">  ├─┬ elasticsearch@8.0.1 </tspan>
<tspan x="10" y="346">  │ ├─┬ chalk@1.1.3 </tspan>
<tspan x="10" y="362">  │ │ ├── ansi-styles@2.2.1 </tspan>
<tspan x="10" y="378">  │ │ ├── escape-string-regexp@1.0.5 </tspan>
<tspan x="10" y="394">  │ │ ├─┬ has-ansi@2.0.0 </tspan>
<tspan x="10" y="410">  │ │ │ └── ansi-regex@2.1.1 </tspan>
<tspan x="10" y="426">  │ │ ├── strip-ansi@3.0.1 </tspan>
<tspan x="10" y="442">  │ │ └── supports-color@2.0.0 </tspan>
<tspan x="10" y="458">  │ ├── forever-agent@0.6.1 </tspan>
<tspan x="10" y="474">  │ └── lodash-compat@3.10.2 </tspan>
<tspan x="10" y="490">  ├── kareem@1.4.0 </tspan>
<tspan x="10" y="506">  ├── lodash@3.10.1 </tspan>
<tspan x="10" y="522">  ├── pluralize@1.1.6 </tspan>
<tspan x="10" y="538">  └─┬ winston@1.0.2 </tspan>
<tspan x="10" y="554">    ├── async@1.0.0 </tspan>
<tspan x="10" y="570">    ├── colors@1.0.3 </tspan>
<tspan x="10" y="586">    ├── cycle@1.0.3 </tspan>
<tspan x="10" y="602">    ├── eyes@0.1.8 </tspan>
<tspan x="10" y="618">    ├── isstream@0.1.2 </tspan>
<tspan x="10" y="634">    ├── pkginfo@0.3.1 </tspan>
<tspan x="10" y="650">    └── stack-trace@0.0.9</tspan>
</text>
</svg>
